<?xml version="1.0" encoding="UTF-8"?>
<svg id="Layer_2" data-name="Layer 2" xmlns="http://www.w3.org/2000/svg" viewBox="0 0 572.15 572.15">
  <defs>
    <style>
      .cls-1 {
        fill: #daf1de;
      }
    </style>
  </defs>
  <g id="Layer_1-2" data-name="Layer 1">
    <g>
      <path class="cls-1" d="M223.94,173.4c-.68-4.66-2-8.71-3.93-12.12-1.94-3.41-4.73-6.2-8.37-8.36-3.64-2.16-8.76-3.93-15.36-5.29h81.74c-4.87-36.11-15.81-70.38-38.78-98.11-3.48-4.2-7.18-8.15-11.05-11.84C178.32-9.79,98.29-14.18,46.08,34.65c-1.08,1.01-2.15,2.05-3.2,3.1C-11.12,91.75-5.62,179.27,49.75,229.85c46.72,42.68,113.27,49.12,176.24,49.86v-90.09c-.68-6.15-1.37-11.55-2.05-16.22Z"/>
      <path class="cls-1" d="M211.65,381.32c3.64-2.16,6.43-4.95,8.37-8.37,1.93-3.42,3.24-7.45,3.93-12.12.68-4.66,1.36-10.08,2.05-16.22v-53.79c-62.27-1.38-128.97,2.71-176.47,42.06-4.2,3.48-8.15,7.18-11.84,11.05-47.47,49.87-51.86,129.9-3.03,182.11,1.01,1.08,2.05,2.15,3.1,3.2,54,54,141.52,48.5,192.1-6.87,33.6-36.78,44.72-85.84,48.31-135.78h-81.87c6.6-1.36,11.72-3.12,15.36-5.29Z"/>
      <path class="cls-1" d="M522.39,342.29c-46.86-42.81-113.67-49.16-176.81-49.87l.58,36.49c-3.65-8.65-8.43-15.54-14.34-20.66-5.92-5.12-12.18-9.1-18.78-11.95-3.72-1.6-7.41-2.86-11.09-3.85-3.1.01-6.18.02-9.23.02-1,28.7-2.83,60.26-1.81,91.73,2.89.87,5.91,1.68,9.16,2.4h-9.07c1.84,49.55,10.98,98.7,41.89,136.01,3.48,4.2,7.18,8.15,11.05,11.84,49.87,47.47,129.9,51.86,182.11,3.03,1.08-1.01,2.15-2.05,3.2-3.1,54-54,48.51-141.52-6.87-192.1Z"/>
      <path class="cls-1" d="M386.11,211.13c-3.65-8.42-9.16-16.05-16.56-22.88-7.4-6.83-15.19-12.63-23.39-17.41s-16.22-8.59-24.07-11.44c-7.85-2.84-14.17-4.49-18.95-4.95h-5.78c-6.27,41.64-4.88,85.62-4.88,124.96,2.64.09,5.3.19,7.98.29,4.17-1.03,8.36-2.41,12.58-4.23,6.6-2.85,12.86-6.88,18.78-12.12,5.92-5.23,10.69-12.06,14.34-20.48l-.61,38.42c62.44,1.42,129.42-2.57,177.07-42.05,4.21-3.48,8.15-7.18,11.84-11.05,47.47-49.87,51.86-129.9,3.03-182.11-1.02-1.08-2.05-2.15-3.1-3.2-54-54-141.52-48.5-192.1,6.87-25.01,27.38-37.56,61.58-43.83,97.88h73.65l14,63.5Z"/>
    </g>
  </g>
</svg>