<?xml version="1.0" encoding="UTF-8"?>
<svg id="Layer_2" data-name="Layer 2" xmlns="http://www.w3.org/2000/svg" viewBox="0 0 1198.64 385.59">
  <defs>
    <style>
      .cls-1 {
        letter-spacing: -.02em;
      }

      .cls-2, .cls-3 {
        fill: #daf1de;
      }

      .cls-3 {
        font-family: BellMTBold, 'Bell MT';
        font-size: 290.77px;
      }

      .cls-4 {
        letter-spacing: -.07em;
      }
    </style>
  </defs>
  <g id="Layer_1-2" data-name="Layer 1">
    <g>
      <g>
        <path class="cls-2" d="M150.92,116.86c-.46-3.14-1.35-5.87-2.65-8.17-1.3-2.3-3.19-4.18-5.64-5.63-2.45-1.46-5.91-2.65-10.35-3.57h55.09c-3.28-24.34-10.65-47.43-26.13-66.12-2.35-2.83-4.84-5.49-7.45-7.98C120.18-6.6,66.24-9.56,31.06,23.35c-.73.68-1.45,1.38-2.16,2.09C-7.49,61.83-3.79,120.81,33.53,154.91c31.49,28.76,76.34,33.1,118.77,33.6v-60.71c-.46-4.14-.92-7.78-1.38-10.93Z"/>
        <path class="cls-2" d="M142.64,256.99c2.45-1.45,4.33-3.34,5.64-5.64,1.3-2.3,2.19-5.02,2.65-8.17.46-3.14.92-6.79,1.38-10.93v-36.25c-41.96-.93-86.92,1.82-118.93,28.35-2.83,2.35-5.5,4.84-7.98,7.45-31.99,33.61-34.95,87.55-2.04,122.73.68.73,1.38,1.45,2.09,2.16,36.39,36.39,95.37,32.69,129.47-4.63,22.64-24.79,30.14-57.85,32.56-91.51h-55.18c4.45-.92,7.9-2.11,10.35-3.57Z"/>
        <path class="cls-2" d="M352.06,230.69c-31.58-28.85-76.61-33.13-119.16-33.61l.39,24.59c-2.46-5.83-5.68-10.47-9.67-13.92-3.99-3.45-8.21-6.13-12.66-8.05-2.51-1.08-5-1.93-7.48-2.59-2.09,0-4.17.02-6.22.02-.67,19.34-1.91,40.61-1.22,61.82,1.95.58,3.98,1.13,6.17,1.62h-6.11c1.24,33.39,7.4,66.52,28.23,91.66,2.35,2.83,4.84,5.49,7.45,7.98,33.61,31.99,87.55,34.95,122.73,2.04.73-.68,1.45-1.38,2.16-2.09,36.39-36.39,32.69-95.37-4.63-129.47Z"/>
        <path class="cls-2" d="M260.22,142.29c-2.46-5.68-6.18-10.81-11.16-15.42-4.99-4.6-10.24-8.51-15.76-11.73-5.52-3.22-10.93-5.79-16.22-7.71-5.29-1.92-9.55-3.03-12.77-3.34h-3.9c-4.23,28.06-3.29,57.7-3.29,84.22,1.78.06,3.57.13,5.38.2,2.81-.69,5.64-1.62,8.48-2.85,4.45-1.92,8.67-4.64,12.66-8.17,3.99-3.53,7.21-8.13,9.67-13.8l-.41,25.89c42.08.96,87.22-1.73,119.33-28.34,2.83-2.35,5.5-4.84,7.98-7.45,31.99-33.61,34.95-87.55,2.04-122.73-.68-.73-1.38-1.45-2.09-2.16-36.39-36.39-95.37-32.69-129.47,4.63-16.86,18.45-25.31,41.5-29.54,65.96h49.63l9.43,42.8Z"/>
      </g>
      <text class="cls-3" transform="translate(473.98 273.69)"><tspan class="cls-4" x="0" y="0">F</tspan><tspan x="157.88" y="0">e</tspan><tspan class="cls-1" x="297.16" y="0">r</tspan><tspan x="409.75" y="0">on</tspan></text>
    </g>
  </g>
</svg>